<svg class="Icon-svg" xmlns="http://www.w3.org/2000/svg" xmlns:xlink="http://www.w3.org/1999/xlink" viewBox="0 0 64 64"><path d="M13.593,18.962l-6.729,7.035c-0.135,0.142-0.061,0.383,0.128,0.417l3.932,0.683c0.075,0.013,0.151-0.012,0.205-0.068     l3.428-3.584l7.684,7.93l3.927-4.106l0.346-0.362l3.725-3.896l-7.684-7.928l3.646-3.814c0.054-0.056,0.078-0.136,0.066-0.213     l-0.654-4.112c-0.031-0.196-0.262-0.274-0.398-0.133l-6.853,7.167L7.485,4.401V0.428C7.485,0.192,7.301,0,7.075,0H0.791     C0.565,0,0.382,0.192,0.382,0.428v6.571c0,0.236,0.183,0.427,0.409,0.427h3.512L13.593,18.962z M41.098,34.561l-3.8,3.972     l-0.24,0.251L33.1,42.923l18.652,19.411L61.562,64l-1.671-9.882L41.098,34.561z M63.209,0.017h-6.283     c-0.226,0-0.409,0.191-0.409,0.428v3.672l-11.034,9.713l-6.728-7.034c-0.135-0.143-0.366-0.065-0.397,0.132l-0.654,4.111     c-0.013,0.079,0.013,0.157,0.066,0.214l3.428,3.585L4.002,53.726L2.408,63.983l9.451-1.748l37.336-39.036l3.646,3.812     c0.054,0.056,0.13,0.082,0.205,0.069l3.931-0.684c0.188-0.031,0.263-0.274,0.128-0.415l-6.854-7.166L59.41,7.442h3.799     c0.226,0,0.409-0.191,0.409-0.428v-6.57C63.618,0.208,63.435,0.017,63.209,0.017z"/>
  </svg>